PathFileType	4	(X/Y/Z)	Walk8.trc
DataRate	CameraRate	NumFrames	NumMarkers	Units	OrigDataRate	OrigDataStartFrame	OrigNumFrames
200.000000	200.000000	4	59	mm	200.000000	456	530
Frame#	Times		LBHD		C7		T10		LPSI		RPSI		RCAR		LElbowM		LTB1		RWRR		LLFC		LUA1		LFHD		RUA1		LACR1		LCAR		RWRU		RFA1		RElbowM		RTH3		LWRU		LFA1		CLAV		STRN		RACR1		RBack		RTB1		RBHD		RTH2		RCAL		RTB4		LWRR		RToe		RTB3		RFHD		RMT1		RTB2		RTH4		RMT5		RElbow		RTH1		LTB3		LElbow		LMT1		RMMAL		LTH1		LTH3		LTH4		RASI		RLFC		LTH2		LCAL		LLMAL		LMT5		LASI		RLMAL		LTB2		LTB4		LToe		LMMAL
			X1	Y1	Z1	X2	Y2	Z2	X3	Y3	Z3	X4	Y4	Z4	X5	Y5	Z5	X6	Y6	Z6	X7	Y7	Z7	X8	Y8	Z8	X9	Y9	Z9	X10	Y10	Z10	X11	Y11	Z11	X12	Y12	Z12	X13	Y13	Z13	X14	Y14	Z14	X15	Y15	Z15	X16	Y16	Z16	X17	Y17	Z17	X18	Y18	Z18	X19	Y19	Z19	X20	Y20	Z20	X21	Y21	Z21	X22	Y22	Z22	X23	Y23	Z23	X24	Y24	Z24	X25	Y25	Z25	X26	Y26	Z26	X27	Y27	Z27	X28	Y28	Z28	X29	Y29	Z29	X30	Y30	Z30	X31	Y31	Z31	X32	Y32	Z32	X33	Y33	Z33	X34	Y34	Z34	X35	Y35	Z35	X36	Y36	Z36	X37	Y37	Z37	X38	Y38	Z38	X39	Y39	Z39	X40	Y40	Z40	X41	Y41	Z41	X42	Y42	Z42	X43	Y43	Z43	X44	Y44	Z44	X45	Y45	Z45	X46	Y46	Z46	X47	Y47	Z47	X48	Y48	Z48	X49	Y49	Z49	X50	Y50	Z50	X51	Y51	Z51	X52	Y52	Z52	X53	Y53	Z53	X54	Y54	Z54	X55	Y55	Z55	X56	Y56	Z56	X57	Y57	Z57	X58	Y58	Z58	X59	Y59	Z59

456	2.28	630.05	1461.4	-70.281	621.68	1328.2	3.2568	603.71	1062.2	13.653	585.63	875.85	-27.459	573.85	889.4	72.056	859.54	748.5	293.41	613.94	943.44	-177.83	909.92	345.98	-25.818	871.85	791.02	245.25	857.59	449.27	-106.13	683.65	1087.7	-237.75	801.44	1484.9	-52.203	736.2	1130.6	240.83	697.42	1259.9	-161.37	700.91	687.85	-317.02	805.55	762.79	265.27	761.81	862.67	286.97	685.28	943.56	211.17	634.02	535.16	190.73	654.09	731.93	-306.3	642.29	854.2	-282.89	752.72	1259.2	4.6097	820.31	1156.6	3.2276	709.37	1282.8	156.12	611.3	1238	140.69	568.9	316.72	91.865	630.24	1469	52.909	729.27	617.31	186.99	309.81	157.98	97.421	503.68	252	90.079	714.11	722.4	-265.23	446.32	23.929	54.67	447.04	177.95	83.569	806.66	1494.7	25.057	415.94	54.344	50.379	484.46	264.96	158.42	656.42	625.19	214.78	397.24	52.312	108.14	733.2	987.37	282.37	679.43	708.34	240.34	932.58	164.65	-16.842	635.74	974.38	-248.12	1013.8	47.254	-14.848	374.68	140.82	46.584	779.23	731.4	-162.85	848.83	562.46	-115.39	815.75	648.71	-136.84	809.73	860.86	165.34	619.73	437.15	178.71	869.82	683.4	-101.32	859.12	27.877	-20.053	899.17	61.26	-60.997	989.16	30.008	-68.283	733.58	828.27	-124.88	366.47	133.66	125.61	891.53	248.73	-89.933	913.14	254.04	-22.786	1069.6	23.599	-27.016	920.2	66.658	16.35
457	2.285	636.23	1462.9	-71.443	627.86	1329.6	2.215	610.04	1063.6	13.154	591.96	877.44	-27.462	580.38	890.29	72.274	864.12	749.69	293.16	620.79	944.63	-178	912.55	346.04	-26.606	876.58	792.04	244.83	860.99	449.88	-106.8	690.21	1088.9	-238.38	807.59	1486.3	-53.241	742.67	1132.6	239.91	703.51	1261.2	-162.32	707.15	688.69	-316.97	810.17	764.29	265.1	767.03	864.47	286.55	690.96	945.67	210.48	643.34	535.35	191.23	660.45	732.96	-306.38	648.85	855.29	-283.04	758.94	1260.7	3.5778	826.65	1158.2	2.1541	715.88	1284.6	155.03	617.77	1239.8	139.87	578.41	316.79	93.527	636.32	1470.5	51.754	737.82	618.33	186.96	316.8	163.84	96.279	512.03	253.25	91.455	720.23	723.27	-265.14	447.09	24.279	55.29	454.19	180.21	84.645	812.76	1496.1	24.047	419.08	55.946	50.82	491.85	267.44	159.14	664.9	625.72	214.75	399.62	54.413	108.27	739.12	989.32	281.62	687.15	709.19	239.86	933.59	164.55	-17.293	642.46	975.43	-248.43	1013.9	47.081	-14.98	381.68	144.3	46.758	784.58	732.62	-163.45	853.21	563.23	-116.14	820.63	649.67	-137.57	816.33	861.77	165.53	629.8	437.36	179.81	874.91	683.99	-102.03	859.19	27.937	-20.247	899.49	61.24	-61.217	989.14	29.817	-68.491	733.39	828.15	-124.9	371.93	137.87	125.59	893.15	248.81	-90.491	914.93	254.07	-23.368	1069.8	23.063	-26.982	920.39	66.754	16.131
458	2.29	642.4	1464.4	-72.575	634.02	1331.1	1.2022	616.31	1065.1	12.639	598.24	879.02	-27.495	586.86	891.19	72.439	868.68	750.92	292.92	627.66	945.9	-178.16	915.03	346.09	-27.362	881.29	793.11	244.43	864.16	450.41	-107.49	696.78	1090.1	-239	813.74	1487.7	-54.257	749.12	1134.6	239.03	709.61	1262.6	-163.22	713.49	689.6	-316.91	814.78	765.84	264.97	772.23	866.32	286.18	696.61	947.81	209.85	652.78	535.58	191.81	666.91	734.05	-306.44	655.45	856.43	-283.18	765.13	1262.2	2.5892	832.96	1159.9	1.1207	722.35	1286.5	153.96	624.2	1241.6	139.08	588.21	316.83	95.299	642.41	1471.9	50.628	746.44	619.41	186.98	324.18	169.69	95.151	520.7	254.5	92.91	726.47	724.24	-265.04	448.21	24.728	56.076	461.66	182.48	85.798	818.87	1497.5	23.055	422.6	57.722	51.379	499.51	270.01	159.88	673.46	626.28	214.76	402.33	56.746	108.49	745.02	991.29	280.9	694.9	710.09	239.4	934.51	164.45	-17.728	649.19	976.55	-248.73	1014	46.97	-15.112	389.03	147.79	46.952	789.86	733.79	-164.06	857.4	563.89	-116.91	825.38	650.55	-138.33	822.89	862.69	165.67	640.03	437.59	180.94	879.92	684.45	-102.81	859.24	27.961	-20.428	899.77	61.224	-61.428	989.1	29.673	-68.695	733.38	828.01	-124.93	377.74	142.16	125.6	894.66	248.89	-91.034	916.59	254.09	-23.933	1069.9	22.648	-26.955	920.53	66.858	15.919
459	2.295	648.57	1465.8	-73.674	640.15	1332.6	0.21955	622.53	1066.5	12.108	604.49	880.58	-27.563	593.29	892.07	72.545	873.24	752.19	292.7	634.53	947.22	-178.32	917.33	346.12	-28.073	885.98	794.22	244.04	867.11	450.87	-108.18	703.35	1091.3	-239.6	819.89	1489	-55.249	755.52	1136.6	238.18	715.7	1264	-164.09	719.94	690.58	-316.83	819.37	767.43	264.88	777.42	868.19	285.84	702.21	949.96	209.27	662.34	535.83	192.44	673.46	735.19	-306.5	662.1	857.62	-283.33	771.29	1263.8	1.6464	839.21	1161.5	0.1304	728.76	1288.4	152.92	630.58	1243.4	138.32	598.27	316.86	97.157	648.5	1473.4	49.535	755.13	620.55	187.05	331.93	175.48	94.049	529.68	255.75	94.419	732.82	725.28	-264.94	449.74	25.288	57.047	469.45	184.76	87.005	824.98	1498.9	22.081	426.56	59.662	52.055	507.43	272.65	160.62	682.07	626.88	214.79	405.42	59.312	108.81	750.91	993.28	280.21	702.66	711.04	238.93	935.35	164.35	-18.139	655.91	977.73	-249.03	1014	46.907	-15.243	396.73	151.27	47.158	795.07	734.9	-164.68	861.37	564.44	-117.69	830.01	651.36	-139.12	829.4	863.59	165.75	650.39	437.85	182.08	884.85	684.79	-103.66	859.28	27.956	-20.596	899.99	61.212	-61.626	989.04	29.565	-68.89	733.64	827.87	-124.98	383.88	146.51	125.62	896.08	248.96	-91.555	918.13	254.1	-24.469	1069.9	22.333	-26.933	920.64	66.964	15.718
